<svg width="25" height="23" viewBox="0 0 25 23" fill="none" xmlns="http://www.w3.org/2000/svg">
<path d="M24.4444 14.4577V15.7206C24.4444 15.7931 24.3996 15.8576 24.3344 15.8858C23.9352 16.055 22.5683 16.6754 22 17.4569C20.5496 19.4531 19.4415 22.3073 16.9644 22.3073H6.63053C2.96798 22.3073 0 19.3625 0 15.7287V15.6119C0 15.5152 0.0794266 15.4366 0.177213 15.4366H5.93798C6.05202 15.4366 6.13553 15.5414 6.12538 15.6521C6.08462 16.0228 6.15389 16.4015 6.33111 16.7459C6.67332 17.4328 7.38221 17.8618 8.14813 17.8618H11V15.6602H8.18072C8.0361 15.6602 7.95057 15.495 8.03408 15.3782C8.06462 15.3319 8.09927 15.2836 8.13591 15.2292C8.40278 14.8545 8.7837 14.2724 9.16259 13.6097C9.4213 13.1625 9.67183 12.6851 9.87351 12.2057C9.91427 12.1191 9.94683 12.0305 9.97943 11.9438C10.0344 11.7908 10.0915 11.6478 10.1322 11.5048C10.173 11.3839 10.2055 11.257 10.2381 11.1381C10.3339 10.7312 10.3746 10.3002 10.3746 9.85304C10.3746 9.6778 10.3665 9.49449 10.3502 9.31926C10.342 9.12791 10.3176 8.93652 10.2931 8.74517C10.2768 8.57598 10.2463 8.40878 10.2137 8.23355C10.173 7.97773 10.1159 7.72396 10.0507 7.46811L10.0283 7.37145C9.97943 7.19618 9.9387 7.02902 9.88168 6.85379C9.72072 6.30386 9.53538 5.76808 9.33981 5.26653C9.26851 5.0671 9.18702 4.87576 9.10553 4.68441C8.98538 4.39636 8.86313 4.13451 8.7511 3.88674C8.69408 3.77393 8.64519 3.67119 8.5963 3.56646C8.5413 3.44761 8.48427 3.32877 8.42721 3.216C8.38649 3.12938 8.33962 3.0488 8.30702 2.96822L7.9587 2.33171C7.90981 2.24509 7.9913 2.14236 8.08702 2.16855L10.2667 2.75268H10.2728C10.2768 2.75268 10.2789 2.75472 10.2809 2.75472L10.5681 2.83326L10.8839 2.92191L11 2.95411V1.67304C11 1.05465 11.5011 0.553101 12.1204 0.553101C12.43 0.553101 12.7111 0.677987 12.9128 0.881414C13.1144 1.08488 13.2407 1.36285 13.2407 1.67304V3.57454L13.473 3.63896C13.4913 3.64504 13.5096 3.65308 13.5259 3.66516C13.583 3.70747 13.6644 3.76989 13.7683 3.84647C13.8498 3.91089 13.9374 3.98947 14.0433 4.07005C14.2531 4.2372 14.5037 4.45275 14.7787 4.70052C14.852 4.76295 14.9233 4.82741 14.9885 4.89187C15.343 5.21818 15.7402 5.60088 16.1191 6.02389C16.225 6.14274 16.3289 6.26359 16.4348 6.39047C16.5407 6.5194 16.6528 6.64629 16.7505 6.77321C16.8789 6.94241 17.0174 7.11764 17.1376 7.30095C17.1946 7.38757 17.2598 7.47619 17.3148 7.5628C17.4696 7.79442 17.6061 8.03416 17.7365 8.27386C17.7915 8.38463 17.8485 8.50547 17.8974 8.62432C18.042 8.9446 18.1561 9.27091 18.2294 9.59723C18.2518 9.66773 18.2681 9.74427 18.2763 9.81277V9.82888C18.3007 9.92554 18.3089 10.0283 18.317 10.133C18.3496 10.4674 18.3333 10.8017 18.26 11.1381C18.2294 11.2812 18.1887 11.4161 18.1398 11.5591C18.0909 11.6961 18.042 11.8391 17.9789 11.9741C17.8567 12.254 17.712 12.534 17.5409 12.7959C17.4859 12.8926 17.4207 12.9953 17.3555 13.092C17.2842 13.1947 17.2109 13.2914 17.1457 13.3861C17.0561 13.5069 16.9604 13.6338 16.8626 13.7466C16.775 13.8655 16.6854 13.9843 16.5876 14.0891C16.4511 14.2482 16.3207 14.3993 16.1842 14.5443C16.1028 14.639 16.0152 14.7357 15.9255 14.8223C15.838 14.9189 15.7483 15.0056 15.6668 15.0861C15.5304 15.2211 15.4163 15.3258 15.3205 15.4124L15.0965 15.6159C15.0639 15.6441 15.0211 15.6602 14.9763 15.6602H13.2407V17.8618H15.4244C15.9133 17.8618 16.3778 17.6906 16.7526 17.3764C16.8809 17.2656 17.4411 16.7862 18.1031 16.0631C18.1255 16.0389 18.1541 16.0208 18.1867 16.0127L24.2183 14.2885C24.3304 14.2563 24.4444 14.3408 24.4444 14.4577Z" fill="white"/>
</svg>
